<?xml version="1.0" encoding="UTF-8"?>
<!DOCTYPE svg PUBLIC "-//W3C//DTD SVG 1.1//EN" "http://www.w3.org/Graphics/SVG/1.1/DTD/svg11.dtd">
<!-- Creator: CorelDRAW 2021.5 -->
<svg xmlns="http://www.w3.org/2000/svg" xml:space="preserve" width="25.3998mm" height="25.3998mm" version="1.1" style="shape-rendering:geometricPrecision; text-rendering:geometricPrecision; image-rendering:optimizeQuality; fill-rule:evenodd; clip-rule:evenodd"
viewBox="0 0 2539.98 2539.98"
 xmlns:xlink="http://www.w3.org/1999/xlink"
 xmlns:xodm="http://www.corel.com/coreldraw/odm/2003">
 <defs>
  <style type="text/css">
   <![CDATA[
    .fil0 {fill:#D5C2BC}
    .fil5 {fill:#F3DCD6}
    .fil4 {fill:#FAE4DC}
    .fil3 {fill:#FCECE5}
    .fil2 {fill:#FEFCFA}
    .fil1 {fill:#FEFEFD}
   ]]>
  </style>
 </defs>
 <g id="Camada_x0020_1">
  <metadata id="CorelCorpID_0Corel-Layer"/>
  <g id="_1523937655616">
   <path class="fil0" d="M1023.81 1109.89l491.42 -0.28 0.15 22.21 -491.8 0.92 0.23 -22.85zm430.48 -21.39c5.14,-9.11 34.96,-44.42 43.2,-50.32l13.5 50.16 -28.8 -0.38 -27.9 0.54zm-160.75 -0.02c8.73,-16.33 23.55,-32.08 34.96,-47.47 10.79,-14.56 21.21,-30.85 33.82,-45.06 2.67,2.17 1.18,0.2 4.93,5.4 1.33,1.84 3.05,5.02 3.82,6.5l39.58 80.17 -117.11 0.46zm-164.9 0.13c3.55,-16.26 35.51,-77.13 46.01,-95.4l71.58 94.89 -117.59 0.51zm-100.02 -0.14c1.8,-10.72 3.72,-16.13 6.58,-25.82l7.29 -20.33c0.18,-1.26 0.82,-1.55 1.3,-2.29l40.9 48.34 -56.07 0.1zm-2.54 -71.88l-12.66 41.06 -15.61 -42.9c-4.25,-13.52 -10.69,-28.91 -12.23,-42.2 14.18,12.62 27.46,29.5 40.5,44.04zm488.65 -0.01c11.35,-14 27.16,-35 40.25,-44.28l-30.99 78.25c-0.4,-0.88 -1.73,-4.06 -2.12,-5.1l-7.14 -28.87zm-135.22 -45.54c9.48,-7.33 53.83,-69.82 68.44,-87.87 9,10.87 40.34,125.59 41.05,130.89 -21.46,19.54 -37.22,46.49 -57.44,63.65l-52.05 -106.67zm-287.77 -88.04l69.1 89.48 -52.37 105.33c-21.28,-19.81 -35.85,-43.88 -57.95,-64.03l41.22 -130.78zm179.07 -75.75l80.78 164.81 -81.75 107.16c-15.45,-15.32 -27.51,-36.06 -42.06,-54.74 -9.32,-11.96 -30.66,-43.6 -41.53,-51.7l84.56 -165.53zm-9.96 -65.81c-7.58,-14.83 -1.96,-26.32 10.12,-36.9 12.35,25.73 15.03,21.7 -1.13,48.15l-8.99 -11.25zm-266.53 334.84c10.22,33.15 8.76,42.37 7.23,79.14 166.65,-1.28 369.47,-2.85 536.09,0.27 -1.65,-125.98 45.81,-167.05 69.05,-278.64 -10.51,5.68 -21.14,20.37 -28.41,30.07 -6.38,8.51 -62.3,76.84 -72.33,83.13l-47.73 -155.35 -89.58 115.85c-12.06,-12.88 -61.11,-119.47 -75.26,-145.82 -9.32,-17.38 -14.53,-19.26 -4.18,-39.48 5.13,-10.02 16.87,-27.21 16.83,-36.55 -0.04,-7.88 -11.87,-27.04 -16.61,-36.55l-19.58 -36.48c-7.11,7.54 -6.08,8 -10.8,17.93 -30.97,65.21 -35.38,42.18 -9.18,92.53 9.93,19.06 4.7,21.43 -4.27,37.7l-71.91 140.5 -92.34 -111.16 -47.82 156.82 -93.52 -106.77c-7.11,-6.09 3.5,0.47 -7.86,-5.6 8.95,40.58 45.87,145.5 62.18,198.46z"/>
   <path class="fil1" d="M217.63 1296.25c20.79,-5.17 21.37,8.17 21.27,-22.71l-137.76 -0.14 0.24 17.18c4.86,3.27 -2.76,0.02 7.86,3.28 1.07,0.33 4.48,1.12 5.63,1.37 4.16,0.92 9.79,1.49 14.34,2.27l-0.04 339.03c-2.97,21.31 -19.98,14.94 -27.62,20.53l-0.52 17.22c16.76,-0.12 66.15,2.49 77.7,-3.52 -1.04,-36.31 -10.16,-3.83 -25.55,-23.74 -6.43,-8.33 -3.36,-28.94 -3.31,-41.34 0.32,-77.84 -4.06,-213.86 0.11,-277.59l136.81 311.94c5.01,12.28 12.21,30.55 19.13,42.73l17.31 0.18c12.12,-16.35 30.31,-66.89 40.67,-89.39 13.9,-30.19 24.71,-56.37 38.7,-87.82l78.9 -177.98 -0.47 267.66c0.04,37.62 9.53,57.91 -29.72,58.2l-0.14 20.6 127.74 0.04 -0.24 -17.19 -24.4 -6.98c-9.04,-25.59 -3.81,-153.27 -3.81,-191.67l0.16 -147.36c3.21,-20.34 13.54,-11.41 28.1,-20.47l0 -17.13 -97.62 0.49 -139.43 317.3c-9.91,-14.31 -24.77,-55.91 -32.46,-73.08 -16.8,-37.52 -92.23,-203.89 -91.58,-221.91z"/>
   <path class="fil1" d="M1810.31 1289.06c101.67,-21.57 147.98,72.62 151.43,162.35 9.81,255.26 -169.21,235.66 -218.94,167.79 -22.33,-30.48 -32.37,-73.51 -36.54,-120.74 -8.87,-100.55 21.66,-191.92 104.05,-209.4zm-173.05 210.45c14.09,121.24 86.62,191.53 221.81,181.74 116.8,-8.47 180.98,-103.62 171.27,-233.22 -8.99,-120.05 -90.98,-191.49 -222.66,-181.13 -110.91,8.73 -185.16,105.72 -170.42,232.61z"/>
   <path class="fil1" d="M2222.59 1320.87c-35.71,-52.97 -35.84,-49.03 -130.68,-47.22l-0.05 16.93 20.36 7.08c6.45,3.92 7.15,6.67 8.26,16.61l-1.37 332.66 -27.18 10.13 -0.07 17.13 78.84 0.14 -0.08 -17.27c-0.75,-0.49 -1.91,-0.79 -2.49,-0.98 -29.99,-10.05 -26.85,0.16 -26.83,-60.67 0.02,-57.51 -3.82,-237.13 0.49,-268.74l63.59 90.12c21.85,32.4 42.23,59.11 63.41,90.75l97.53 138.77c26.35,38.16 17.65,32.41 44.13,32.15l-0.14 -326.23c0,-34.93 -5.17,-49.54 12.51,-55.81 18.29,-6.5 16.05,6.37 16.03,-19.54l-77.42 -3.48c-0.08,38.51 1.09,10.01 22.12,26.91 11.07,16.63 7.07,225.75 5.93,264.85l-166.89 -244.29z"/>
   <path class="fil1" d="M775.92 1358.66c7.44,9.15 29.51,74.62 34.03,86.89 10.32,27.95 21.77,57.72 30.59,85.19l-127.23 -1.54 62.61 -170.54zm-88.94 295.46c-19.28,-3.83 -17.05,0.78 -15.44,-12.44l33.13 -90.77 144.7 0.02c6.05,19.67 14.2,39.42 21.43,59.84 0.58,1.64 11.02,29.39 11.18,30.66 2.05,17.27 -9.27,11.98 -26.35,12.43l-0.1 20.35 143.43 -0.32 -0.08 -19.79c-29.43,-1.59 -37.92,-3.43 -47.47,-27.86l-134.39 -352.03c-7.13,-11.46 -7.25,-9.47 -23.25,-7.49 -14.08,25 -29.74,75.86 -40.52,103.25l-79.56 208.23c-42.2,110.18 -33.89,58.3 -64.91,78.86l0 17.15 89.81 0.13 -0.24 -17.28 -11.37 -2.94z"/>
   <path class="fil1" d="M1568.96 1573.76c-24.05,0.11 -19.11,-4.93 -24.98,15.02 -19.63,66.65 -100.53,85.86 -160.23,67.41 -134.93,-41.69 -134.76,-318.6 -3.83,-361.72 39.49,-13 84.15,-9.59 117.41,8.49 16.24,8.82 26.62,19.27 35.93,32.48 24.26,34.39 -2.5,39.04 31.13,39.22 11.8,-17.99 4.26,-11.89 4.31,-12.12 5.05,-28.49 -3.75,-39.88 -20.04,-52.73 -104.04,-82.08 -333.79,-64.05 -334.07,162.29 -0.31,239.85 240.71,243.5 334.31,166.11 25.26,-20.9 19.72,-22.49 20.06,-64.45z"/>
   <path class="fil2" d="M1153.59 1273.37c-33.83,0.19 -99.33,-1.77 -125.95,1.23l0.25 15.98c16.57,12.93 29.03,-3.32 29.01,30.83l-0.04 301.4c0,40.88 -9.52,20.7 -28.9,34.25l-0.36 17.01 125.88 0.16 0.01 -20.69c-20.09,-0.14 -27.46,-2.33 -27.46,-23.88 0,-48.64 -4.39,-302.71 3.6,-329.68 4.66,-2.44 5.2,-2.09 11.37,-4.26 3.21,-1.13 4.48,-1.54 7.57,-2.77 0.57,-0.22 2.05,-0.09 2.45,-1.15 0.4,-1.08 1.69,-0.68 2.39,-1.22l0.18 -17.21z"/>
   <path class="fil3" d="M1115.22 1835.31c2.29,-7.02 4.45,-13.93 6.62,-20.67 4.57,-14.23 7.88,-29.47 13.7,-41.21 0.91,16.66 -6.73,95.06 4.16,107.24 7.19,-9.76 6.65,-128.26 0,-136.89 -8.43,6.72 -7.07,9.5 -11.11,22.89l-22.95 69.75c-4.9,-15.95 -10.19,-33.41 -15.56,-50.15 -8.6,-26.82 -7.3,-38.11 -18.89,-41.71l-2.8 125.77c2.23,14.41 -3.11,5.33 6.23,10.11l2.11 -4.7c4.15,-15.19 -1.52,14.56 1.25,-5.58l-0.82 -90.48c13.83,17.52 15.55,58.75 28.28,73.77l9.78 -18.14z"/>
   <path class="fil4" d="M1224.02 1842.83c-2.88,14.22 -4.36,23.78 -15.01,28.25 -13.25,5.56 -24.43,0.04 -29.54,-9.75 -8.92,-17.11 -7.97,-61.56 -4.14,-82.28 10.31,-55.94 67.49,-29.02 48.69,63.78zm8.51 3.43c20.97,-124.82 -54.53,-125.15 -66.58,-69.96 -25.61,117.16 55.48,136.12 66.58,69.96z"/>
   <path class="fil4" d="M1263.62 1752.49l28.01 1.45c18.31,23.18 18.11,36.31 15.6,71.81 -2.37,33.51 -8.1,49.46 -43.57,45.12l0.07 -86.26 -0.11 -32.12zm-8.64 128.29c53.66,0.07 60.8,-12.23 62.3,-68.7 1.73,-65.11 -17.42,-68.55 -61.83,-67.84l-0.47 136.54z"/>
   <path class="fil3" d="M1366.98 1761.14l19.09 71.82 -37.65 0.34 18.56 -72.16zm-35.49 119.56c4.93,-3.77 3.45,-1.07 6.38,-7.69 0.12,-0.28 2.38,-10.17 2.55,-10.92 1.8,-7.96 3.12,-12.69 4.58,-20.16l41.3 0.22 7.64 20.35c3.1,12.14 0.15,12.24 9.48,18.22 5.88,-9.11 0.63,-17.06 -4.27,-33.58l-28.34 -103.8c-11.17,4.71 -6.12,-2.62 -11.22,14.69 -2,6.76 -3.26,11.94 -5.12,18.81l-18.99 70c-13.56,48.24 -8.48,27.59 -3.99,33.86z"/>
   <path class="fil3" d="M1417.54 1867.27c1.18,13.52 7.68,15.1 23.59,15.27 42.68,0.47 40.71,-45.11 23.05,-66.12 -7.65,-9.1 -34.45,-31.4 -36.85,-42.67 -6.83,-32.05 31.6,-20.44 40.87,-21.27l4.92 -2.12c-3.74,-3.96 0.01,-2.34 -6.11,-5.31 -3.66,-1.77 -4.59,-1.72 -8.68,-2.26 -15.47,-2.05 -34.44,1.12 -39.48,16.28 -13.05,39.18 56.15,51.3 46.36,97.09 -5.07,23.74 -29.24,16.02 -47.67,11.11z"/>
   <path class="fil4" d="M1361.77 841.65l11.53 20.61 14.19 -19.57c-2.66,-5.01 -2.86,-7.77 -6.04,-12.88 -8,-12.79 -3.58,-5.29 -10.07,-9.83l-9.61 21.67z"/>
   <path class="fil5" d="M1513.21 896.71c1.42,2.94 2.76,6.87 5.49,11.31 5.12,8.31 1.41,4 8.84,9.47l10.95 -20.55 -11.3 -20.98c-7.84,5.66 -10.37,12.47 -13.98,20.75z"/>
   <path class="fil4" d="M1152.75 841.94l10.28 21.1c10.5,-9.57 6.77,-8.18 13.7,-21.13 -5.1,-12.02 -4.85,-13.44 -14.59,-21.8l-9.39 21.83z"/>
   <path class="fil5" d="M1000.3 896.31l11.93 20.38 14.23 -19.61c-5.64,-8.76 -4.74,-13.67 -13.49,-20.87l-12.67 20.1z"/>
  </g>
 </g>
</svg>
